<?xml version="1.0" encoding="UTF-8" ?>
<!DOCTYPE svg PUBLIC "-//W3C//DTD SVG 1.1//EN" "http://www.w3.org/Graphics/SVG/1.1/DTD/svg11.dtd">
<svg width="413pt" height="236pt" viewBox="0 0 413 236" version="1.1" xmlns="http://www.w3.org/2000/svg">
<path fill="#ffffff" d=" M 0.00 0.00 L 413.00 0.00 L 413.00 236.00 L 0.00 236.00 L 0.00 0.00 Z" />
<path fill="#101314" d=" M 45.37 85.73 C 100.97 60.82 156.34 35.34 211.97 10.50 C 212.04 29.57 211.98 48.64 212.00 67.71 C 203.65 70.92 195.78 75.28 187.47 78.60 C 170.60 86.48 153.49 93.83 136.62 101.72 C 128.30 105.03 120.51 109.68 111.95 112.38 C 108.21 111.96 104.89 109.92 101.38 108.69 C 91.07 104.22 80.46 100.50 70.22 95.88 C 61.82 92.79 53.53 89.40 45.37 85.73 Z" />
<path fill="#137826" d=" M 242.72 10.98 C 244.08 11.00 245.43 11.01 246.79 11.02 C 246.65 15.94 246.88 20.88 246.50 25.79 C 246.34 29.27 243.75 32.40 240.37 33.22 C 235.73 34.45 230.88 33.98 226.15 33.94 C 226.15 32.65 226.15 31.35 226.14 30.06 C 230.29 29.88 234.52 30.32 238.62 29.48 C 240.83 29.10 242.44 27.01 242.55 24.81 C 242.92 20.22 242.55 15.59 242.72 10.98 Z" />
<path fill="#137826" d=" M 260.58 15.57 C 261.86 13.63 263.10 10.79 265.87 10.94 C 267.98 12.24 269.21 14.47 270.46 16.53 C 273.84 22.36 277.39 28.09 280.64 33.99 C 278.86 33.98 277.09 33.97 275.32 33.92 C 274.17 31.91 273.08 29.85 271.67 28.01 C 268.06 27.11 264.21 27.96 260.51 27.65 C 261.24 26.38 261.94 25.08 262.85 23.93 C 264.71 23.23 266.77 23.50 268.71 23.26 C 267.58 21.23 266.42 19.22 265.22 17.23 C 261.51 22.68 258.22 28.40 254.73 33.99 C 253.00 33.99 251.27 33.99 249.55 33.98 C 253.08 27.75 256.98 21.75 260.58 15.57 Z" />
<path fill="#137826" d=" M 282.01 11.01 C 287.03 11.01 292.05 10.95 297.07 11.00 C 300.33 11.05 303.85 11.34 306.45 13.53 C 308.84 15.95 309.51 19.95 307.97 22.99 C 306.75 24.92 304.71 26.08 302.91 27.37 C 305.09 29.54 307.27 31.72 309.35 33.99 C 307.36 33.98 305.32 34.21 303.36 33.77 C 301.13 31.82 299.18 29.58 297.02 27.56 C 294.12 27.60 291.23 27.62 288.33 27.60 C 288.35 26.24 288.36 24.87 288.38 23.51 C 292.83 23.40 297.39 24.07 301.77 23.06 C 305.58 22.28 305.54 16.01 301.65 15.35 C 296.53 14.65 291.32 15.17 286.17 15.06 C 286.13 21.38 286.21 27.69 286.13 34.01 C 284.76 34.01 283.39 34.02 282.03 34.02 C 281.97 26.35 282.00 18.68 282.01 11.01 Z" />
<path fill="#137826" d=" M 312.75 11.02 C 319.15 11.12 325.58 10.64 331.95 11.32 C 336.26 11.67 340.01 15.55 339.47 20.00 C 339.49 23.57 336.29 25.61 333.67 27.36 C 335.84 29.57 338.04 31.76 340.19 33.99 C 338.18 34.01 336.17 34.01 334.16 34.01 C 332.05 31.89 329.91 29.80 327.86 27.62 C 324.93 27.58 322.00 27.61 319.07 27.65 C 319.03 26.29 318.99 24.93 318.96 23.57 C 323.39 23.39 327.89 24.00 332.28 23.15 C 335.06 22.55 336.27 18.81 334.49 16.64 C 333.45 15.29 331.59 15.21 330.05 15.08 C 325.70 14.92 321.36 15.07 317.02 15.05 C 316.92 21.37 317.05 27.69 316.96 34.02 C 315.56 34.02 314.16 34.02 312.76 34.02 C 312.69 26.35 312.70 18.69 312.75 11.02 Z" />
<path fill="#137826" d=" M 344.02 11.00 C 350.33 11.09 356.67 10.65 362.96 11.25 C 367.05 11.59 371.20 15.95 369.01 20.10 C 367.54 22.44 368.89 24.76 369.61 27.08 C 369.81 31.06 365.63 33.65 362.06 33.82 C 356.06 34.24 350.02 33.91 344.01 33.99 C 343.99 26.33 343.98 18.66 344.02 11.00 Z" />
<path fill="#137826" d=" M 382.27 11.23 C 386.16 10.70 390.52 10.75 393.82 13.16 C 399.05 16.99 399.65 25.56 395.21 30.21 C 389.78 36.31 377.93 35.29 374.49 27.54 C 371.30 21.23 374.89 12.23 382.27 11.23 Z" />
<path fill="#ffffff" d=" M 348.11 15.04 C 353.92 15.41 360.12 13.86 365.61 16.30 C 365.66 16.91 365.76 18.12 365.81 18.73 C 361.36 22.22 355.34 20.09 350.16 20.67 C 350.17 22.04 350.18 23.41 350.18 24.78 C 355.43 25.15 361.30 23.28 366.00 26.34 C 365.75 27.71 365.34 29.36 363.67 29.53 C 358.54 30.45 353.29 29.79 348.11 29.94 C 348.09 24.97 348.09 20.00 348.11 15.04 Z" />
<path fill="#ffffff" d=" M 382.36 15.48 C 385.52 14.74 389.34 14.75 391.85 17.11 C 395.59 20.48 394.51 27.80 389.56 29.42 C 385.97 30.42 381.28 30.39 378.88 27.07 C 375.74 23.34 377.76 16.90 382.36 15.48 Z" />
<path fill="#101314" d=" M 337.80 42.01 C 339.19 42.00 340.58 42.00 341.98 41.99 C 342.01 49.67 342.01 57.34 341.98 65.02 C 340.59 65.01 339.19 65.01 337.80 65.02 C 337.76 57.35 337.77 49.67 337.80 42.01 Z" />
<path fill="#101314" d=" M 353.00 43.05 C 358.84 41.02 365.22 42.37 371.29 42.02 C 371.28 43.35 371.28 44.67 371.29 45.99 C 366.26 46.23 361.19 45.62 356.20 46.39 C 351.49 47.26 349.31 53.35 351.72 57.29 C 352.91 59.11 354.73 60.72 357.03 60.79 C 361.76 61.26 366.54 60.86 371.29 61.02 C 371.28 62.34 371.28 63.66 371.29 64.98 C 365.45 64.70 359.37 65.86 353.70 64.15 C 344.98 60.93 344.22 46.64 353.00 43.05 Z" />
<path fill="#101314" d=" M 373.63 42.02 C 381.09 41.98 388.55 41.98 396.01 42.02 C 396.00 43.34 396.00 44.66 396.00 45.98 C 393.00 46.04 389.99 46.04 386.99 46.05 C 386.93 52.37 386.99 58.69 386.96 65.02 C 385.54 65.01 384.14 65.02 382.74 65.02 C 382.68 58.70 382.71 52.38 382.72 46.06 C 379.69 46.03 376.66 46.03 373.63 45.98 C 373.63 44.66 373.63 43.34 373.63 42.02 Z" />
<path fill="#137826" d=" M 28.96 93.47 C 33.61 94.66 37.99 96.67 42.39 98.57 C 89.43 117.50 136.45 136.47 183.47 155.46 C 192.99 159.52 202.84 162.83 212.21 167.23 C 211.82 186.23 211.95 205.26 212.14 224.27 C 158.03 202.68 104.12 180.55 50.00 159.03 C 43.07 156.04 36.03 153.28 28.96 150.65 C 28.85 131.59 28.86 112.53 28.96 93.47 Z" />
<path fill="#18ba30" d=" M 383.54 98.49 C 387.94 96.70 392.15 94.24 396.92 93.56 C 397.12 112.36 396.93 131.16 397.02 149.96 C 393.53 152.09 389.67 153.44 385.89 154.93 C 366.83 162.47 347.85 170.17 328.89 177.93 C 318.47 181.58 308.57 186.53 298.17 190.23 C 289.80 194.07 281.00 196.84 272.61 200.62 C 255.29 207.69 237.89 214.51 220.62 221.69 C 217.87 222.78 215.16 224.19 212.14 224.27 C 211.95 205.26 211.82 186.23 212.21 167.23 C 222.28 164.05 231.90 159.58 241.68 155.64 C 252.78 151.64 263.50 146.66 274.54 142.50 C 282.90 138.64 291.72 135.92 300.10 132.09 C 327.97 121.01 355.66 109.53 383.54 98.49 Z" />
<path fill="#101314" d=" M 200.42 99.40 C 207.52 98.55 214.75 99.12 221.90 99.07 C 227.85 100.35 233.97 101.05 239.61 103.47 C 245.32 106.39 251.42 110.28 252.75 117.09 C 251.95 122.12 248.86 126.92 244.02 129.00 C 238.13 133.25 230.91 134.71 223.89 135.90 C 217.82 135.73 211.78 138.35 205.79 136.19 C 198.40 136.06 191.06 134.41 184.18 131.72 C 179.44 129.42 175.05 126.16 172.59 121.38 C 169.42 117.92 172.76 113.68 174.49 110.43 C 180.76 102.78 191.19 100.97 200.42 99.40 Z" />
</svg>
