<?xml version="1.0" encoding="UTF-8" standalone="no"?>
<svg
   xmlns:dc="http://purl.org/dc/elements/1.1/"
   xmlns:cc="http://creativecommons.org/ns#"
   xmlns:rdf="http://www.w3.org/1999/02/22-rdf-syntax-ns#"
   xmlns:svg="http://www.w3.org/2000/svg"
   xmlns="http://www.w3.org/2000/svg"
   xmlns:sodipodi="http://sodipodi.sourceforge.net/DTD/sodipodi-0.dtd"
   xmlns:inkscape="http://www.inkscape.org/namespaces/inkscape"
   width="413pt"
   height="236pt"
   viewBox="0 0 413 236"
   version="1.1"
   id="svg3336"
   inkscape:version="0.91 r13725"
   sodipodi:docname="jarrbo_transparant_7.svg">
  <metadata
     id="metadata3374">
    <rdf:RDF>
      <cc:Work
         rdf:about="">
        <dc:format>image/svg+xml</dc:format>
        <dc:type
           rdf:resource="http://purl.org/dc/dcmitype/StillImage" />
        <dc:title></dc:title>
      </cc:Work>
    </rdf:RDF>
  </metadata>
  <defs
     id="defs3372" />
  <sodipodi:namedview
     pagecolor="#ffffff"
     bordercolor="#666666"
     borderopacity="1"
     objecttolerance="10"
     gridtolerance="10"
     guidetolerance="10"
     inkscape:pageopacity="0"
     inkscape:pageshadow="2"
     inkscape:window-width="1366"
     inkscape:window-height="705"
     id="namedview3370"
     showgrid="false"
     showborder="false"
     inkscape:zoom="1.7297821"
     inkscape:cx="373.68437"
     inkscape:cy="150.63337"
     inkscape:window-x="-8"
     inkscape:window-y="-8"
     inkscape:window-maximized="1"
     inkscape:current-layer="svg3336" />
  <path
     fill="#101314"
     d=" M 67.12 76.06 C 115.39 54.17 163.67 32.29 211.97 10.49 C 212.04 29.53 211.97 48.57 212.01 67.61 C 208.08 68.95 204.40 70.90 200.66 72.67 C 182.69 80.68 164.82 88.90 146.87 96.94 C 135.12 101.85 123.91 108.04 111.94 112.38 C 101.66 109.57 92.26 104.20 82.12 100.91 C 70.08 95.43 57.46 91.32 45.49 85.67 C 52.89 82.92 59.73 78.89 67.12 76.06 Z"
     id="path3340" />
  <path
     fill="#101314"
     d=" M 338.02 42.00 C 339.34 42.00 340.66 42.00 341.98 42.00 C 342.01 49.67 342.01 57.33 341.98 65.00 C 340.66 65.00 339.34 65.00 338.02 65.00 C 337.99 57.33 337.99 49.67 338.02 42.00 Z"
     id="path3358" />
  <path
     fill="#101314"
     d=" M 350.57 44.56 C 356.48 40.25 364.23 42.57 371.00 42.02 C 371.00 43.34 371.00 44.66 371.00 45.98 C 365.83 46.29 360.52 45.35 355.45 46.57 C 349.57 48.48 349.08 57.69 354.75 60.21 C 359.98 61.83 365.61 60.64 371.00 61.02 C 371.00 62.34 371.00 63.66 371.00 64.98 C 365.49 64.74 359.84 65.64 354.43 64.40 C 346.32 61.90 344.20 49.93 350.57 44.56 Z"
     id="path3360" />
  <path
     fill="#101314"
     d=" M 373.63 42.02 C 381.08 41.98 388.54 41.99 396.00 42.02 C 396.00 43.34 396.00 44.66 396.00 45.98 C 393.00 46.00 389.99 46.00 386.99 46.01 C 386.93 52.34 387.00 58.67 386.95 65.00 C 385.64 65.00 384.33 65.00 383.02 65.00 C 382.91 58.71 383.16 52.42 382.86 46.14 C 379.78 45.97 376.70 46.00 373.63 45.97 C 373.62 44.65 373.62 43.34 373.63 42.02 Z"
     id="path3362" />
  <path
     fill="#137826"
     d=" M 29.07 93.49 C 34.38 94.99 39.39 97.35 44.46 99.52 C 70.89 109.99 97.18 120.81 123.58 131.38 C 153.11 143.35 182.77 155.05 212.20 167.25 C 211.83 186.21 211.96 205.18 212.12 224.15 C 202.37 220.71 193.07 216.19 183.36 212.67 C 143.00 196.36 102.63 180.08 62.27 163.76 C 51.04 159.73 40.28 154.52 29.00 150.63 C 29.04 131.58 28.91 112.54 29.07 93.49 Z"
     id="path3364" />
  <path
     fill="#18ba30"
     d=" M 382.87 98.86 C 387.51 97.07 391.88 94.25 396.93 93.78 C 397.09 112.48 396.96 131.18 397.00 149.89 C 392.16 152.78 386.72 154.36 381.57 156.58 C 363.92 163.49 346.42 170.75 328.85 177.85 C 318.41 181.46 308.57 186.52 298.14 190.14 C 289.81 194.08 280.93 196.68 272.58 200.57 C 254.06 208.07 235.50 215.45 217.02 223.04 C 215.49 223.79 213.79 224.00 212.12 224.15 C 211.96 205.18 211.83 186.21 212.20 167.25 C 224.59 163.60 236.07 157.44 248.29 153.30 C 260.04 148.29 271.96 143.71 283.71 138.70 C 291.99 135.94 299.84 132.09 308.00 129.00 C 333.00 119.07 357.83 108.71 382.87 98.86 Z"
     id="path3366" />
  <path
     fill="#101314"
     d=" M 200.42 99.40 C 207.51 98.55 214.75 99.12 221.89 99.07 C 229.65 100.73 238.07 101.43 244.58 106.43 C 248.89 108.70 252.12 113.00 252.77 117.83 C 251.42 122.25 249.13 126.67 244.68 128.63 C 236.98 133.98 227.45 135.87 218.24 136.19 C 214.18 137.36 209.83 137.34 205.76 136.19 C 195.46 135.69 184.40 133.63 176.41 126.61 C 174.46 124.43 172.88 121.94 171.42 119.42 C 170.60 116.85 172.40 114.54 173.41 112.32 C 174.98 108.75 178.48 106.73 181.51 104.55 C 187.57 102.04 193.90 100.21 200.42 99.40 Z"
     id="path3368" />
  <text
     xml:space="preserve"
     style="font-style:normal;font-weight:normal;font-size:32px;line-height:125%;font-family:sans-serif;letter-spacing:0px;word-spacing:0px;fill:#0d4e1a;fill-opacity:1;stroke:none;stroke-width:1px;stroke-linecap:butt;stroke-linejoin:miter;stroke-opacity:1;opacity:1;"
     x="242.80515"
     y="23.256441"
     id="text4161"
     sodipodi:linespacing="125%"><tspan
       sodipodi:role="line"
       id="tspan4163"
       x="242.80515"
       y="23.256441"
       style="fill:#0d4e1a;fill-opacity:1;" /></text>
  <text
     xml:space="preserve"
     style="font-style:normal;font-variant:normal;font-weight:normal;font-stretch:normal;font-size:35.41475296px;line-height:125%;font-family:'Good Times';-inkscape-font-specification:'Good Times, Normal';text-align:start;letter-spacing:0px;word-spacing:0px;writing-mode:lr-tb;text-anchor:start;fill:#0d4e1a;fill-opacity:1;stroke:none;stroke-width:0.08;stroke-linecap:butt;stroke-linejoin:miter;stroke-miterlimit:4;stroke-dasharray:none;stroke-opacity:1"
     x="248.06505"
     y="34.644547"
     id="text4169"
     sodipodi:linespacing="125%"
     transform="scale(0.88875539,1.125169)"><tspan
       sodipodi:role="line"
       id="tspan4171"
       x="248.06505"
       y="34.644547">JARRBO</tspan></text>
</svg>
